<?xml version="1.0" ?><svg height="612" id="svg3380" version="1.0" width="612" xmlns="http://www.w3.org/2000/svg" xmlns:cc="http://creativecommons.org/ns#" xmlns:dc="http://purl.org/dc/elements/1.1/" xmlns:inkscape="http://www.inkscape.org/namespaces/inkscape" xmlns:rdf="http://www.w3.org/1999/02/22-rdf-syntax-ns#" xmlns:sodipodi="http://sodipodi.sourceforge.net/DTD/sodipodi-0.dtd" xmlns:svg="http://www.w3.org/2000/svg"><defs id="defs3382"><marker id="ArrowEnd" markerHeight="3" markerUnits="strokeWidth" markerWidth="4" orient="auto" refX="0" refY="5" viewBox="0 0 10 10"><path d="M 0,0 L 10,5 L 0,10 L 0,0 z" id="path3385"/></marker><marker id="ArrowStart" markerHeight="3" markerUnits="strokeWidth" markerWidth="4" orient="auto" refX="10" refY="5" viewBox="0 0 10 10"><path d="M 10,0 L 0,5 L 10,10 L 10,0 z" id="path3388"/></marker></defs><g id="g3390" transform="translate(-8.24e-2,-0.5848722)"><path d="M 82.4318,17.9243 C 41.0978,17.9243 17.8608,39.2943 17.8608,82.9594 L 17.8608,533.081 C 17.8608,573.924 38.7518,595.309 80.0528,595.309 L 532.078,595.309 C 573.381,595.309 594.304,574.989 594.304,533.081 L 594.304,82.9594 C 594.304,40.3593 573.381,17.9243 530.781,17.9243 C 530.781,17.9243 82.2898,17.7813 82.4318,17.9243 z" id="path3392" style="fill:#000000;stroke:#000000;stroke-width:3.40799999"/><g id="g3394"><path d="M 308.704,103.237 C 268.449,103.237 212.855,114.739 189.851,124.324 C 166.847,133.909 151.511,143.494 146.719,167.456 L 129.467,300.297 L 129.467,483.342 L 159.179,483.342 L 159.179,512.047 C 159.179,547.047 210.397,547.047 210.397,512.047 L 210.397,483.342 L 304.954,483.342 L 305.254,483.342 L 403.561,483.342 L 403.561,512.047 C 403.561,547.047 454.779,547.047 454.779,512.047 L 454.779,483.342 L 484.491,483.342 L 484.491,300.297 L 467.239,167.456 C 462.447,143.494 447.111,133.909 424.107,124.324 C 401.103,114.739 345.509,103.237 305.254,103.237" id="path3396" style="fill:#ffffff;stroke:none"/><g id="g3398"><g id="g3400"><g id="g3402"><path d="M 429.149,425.96 C 442.717,425.96 453.717,414.958 453.717,401.39 C 453.717,387.822 442.717,376.82 429.149,376.82 C 415.581,376.82 404.58,387.822 404.58,401.39 C 404.58,414.958 415.581,425.96 429.149,425.96 z" id="path3404" style="fill:#000000;stroke:none"/><path id="path3406" style="fill:#000000;stroke:none"/></g><g id="g3408"><path d="M 184.809,425.96 C 171.241,425.96 160.241,414.958 160.241,401.39 C 160.241,387.822 171.241,376.82 184.809,376.82 C 198.377,376.82 209.378,387.822 209.378,401.39 C 209.378,414.958 198.377,425.96 184.809,425.96 z" id="path3410" style="fill:#000000;stroke:none"/><path id="path3412" style="fill:#000000;stroke:none"/></g></g><path d="M 305.079,158.35 L 233.943,158.35 C 219.565,158.35 219.565,136.784 233.943,136.784 L 305.254,136.784 L 380.015,136.784 C 394.393,136.784 394.393,158.35 380.015,158.35 L 305.079,158.35 z" id="path3414" style="fill:#000000;stroke:none"/><path d="M 305.079,180.124 L 195.182,180.124 C 179.994,180.124 176.026,187.842 174.182,199.547 L 160.754,295.895 C 159.501,305.13 162.173,314.297 174.932,314.297 L 305.254,314.297 L 439.026,314.297 C 451.785,314.297 454.457,305.13 453.204,295.895 L 439.776,199.547 C 437.932,187.842 433.964,180.124 418.776,180.124 L 305.079,180.124 z" id="path3416" style="fill:#000000;stroke:none"/></g></g></g></svg>